<svg xmlns="http://www.w3.org/2000/svg" width="71.877" height="25.59" viewBox="0 0 71.877 25.59">
  <g id="main_content" data-name="main content" transform="translate(0.002 0.005)">
    <path id="Path_5277" data-name="Path 5277" d="M11.937,9.97A11.006,11.006,0,0,0,9.411,8.844Q8.04,8.427,6.884,8.038a9.154,9.154,0,0,1-1.93-.869,1.537,1.537,0,0,1-.772-1.382,2.046,2.046,0,0,1,.8-1.545,3.308,3.308,0,0,1,2.252-.709,3.122,3.122,0,0,1,2.254.774,2.8,2.8,0,0,1,.8,2.123H13.99a6.661,6.661,0,0,0-.482-2.558,5.944,5.944,0,0,0-1.382-2.043A6.381,6.381,0,0,0,10,.479,7.524,7.524,0,0,0,7.238,0,8.424,8.424,0,0,0,4.3.479,7.213,7.213,0,0,0,2.074,1.75,5.507,5.507,0,0,0,.65,3.6,5.162,5.162,0,0,0,.159,5.819,4.783,4.783,0,0,0,.933,8.668a6.185,6.185,0,0,0,1.93,1.76,10.686,10.686,0,0,0,2.525,1.054q1.365.385,2.525.789a8.417,8.417,0,0,1,1.93.917,1.643,1.643,0,0,1,.774,1.447,2.173,2.173,0,0,1-.839,1.689,3.807,3.807,0,0,1-2.543.724A3.463,3.463,0,0,1,4.758,16.2a2.9,2.9,0,0,1-.9-2.2H0a6.879,6.879,0,0,0,.5,2.654A5.983,5.983,0,0,0,1.93,18.737,6.4,6.4,0,0,0,4.2,20.1a8.863,8.863,0,0,0,3.043.485,8.817,8.817,0,0,0,3.043-.5A7.541,7.541,0,0,0,12.6,18.77a6.085,6.085,0,0,0,1.5-1.85,4.579,4.579,0,0,0,.53-2.123,5.226,5.226,0,0,0-.772-2.977A6.24,6.24,0,0,0,11.937,9.97Z" fill="#fff"/>
    <path id="Path_5278" data-name="Path 5278" d="M89.093,27.3a6.779,6.779,0,0,0-2.2-1.576,6.368,6.368,0,0,0-2.638-.563,5.486,5.486,0,0,0-1.739.256,8.741,8.741,0,0,0-1.319.548,5.568,5.568,0,0,0-1.126.8V25.325H76.69v2.825h0V45.279h3.695V38.833a5.2,5.2,0,0,0,1.03.741,8.8,8.8,0,0,0,1.211.482,5.262,5.262,0,0,0,1.626.217,6.37,6.37,0,0,0,2.638-.565,6.779,6.779,0,0,0,2.2-1.576,7.735,7.735,0,0,0,1.521-2.391,8.484,8.484,0,0,0-.009-6.055A7.759,7.759,0,0,0,89.093,27.3Zm-2.686,8.352a3.732,3.732,0,0,1-5.277,0,4.006,4.006,0,0,1-1.063-2.927,4.014,4.014,0,0,1,1.063-2.93,3.732,3.732,0,0,1,5.277,0,4.014,4.014,0,0,1,1.061,2.93A4.007,4.007,0,0,1,86.407,35.649Z" transform="translate(-60.024 -19.693)" fill="#fff"/>
    <path id="Path_5279" data-name="Path 5279" d="M158.7,25.325v1.441h0a7.131,7.131,0,0,0-1.126-.8,8.741,8.741,0,0,0-1.319-.548,5.47,5.47,0,0,0-1.739-.256,6.359,6.359,0,0,0-2.638.563,6.779,6.779,0,0,0-2.2,1.576,7.681,7.681,0,0,0-1.521,2.391,8.513,8.513,0,0,0,.009,6.066,7.655,7.655,0,0,0,1.521,2.391,6.779,6.779,0,0,0,2.2,1.576,6.361,6.361,0,0,0,2.638.565,5.812,5.812,0,0,0,1.739-.241,6.414,6.414,0,0,0,1.319-.565,6.994,6.994,0,0,0,1.126-.8h0v1.445h3.38v-14.8Zm-1.061,10.323a3.732,3.732,0,0,1-5.277,0,4.006,4.006,0,0,1-1.063-2.927,4.014,4.014,0,0,1,1.063-2.93,3.732,3.732,0,0,1,5.277,0,4.014,4.014,0,0,1,1.061,2.93A4.006,4.006,0,0,1,157.635,35.649Z" transform="translate(-115.519 -19.693)" fill="#fff"/>
    <path id="Path_5280" data-name="Path 5280" d="M233.436,25.2a3.008,3.008,0,0,0-.45-.03,3.912,3.912,0,0,0-1.506.272,4.755,4.755,0,0,0-1.108.628,4.6,4.6,0,0,0-.935.869v-1.6H226.06v2.825h0V40.127h3.695V32.244a3.215,3.215,0,0,1,.854-2.332,2.923,2.923,0,0,1,2.2-.885,3.969,3.969,0,0,1,.53.033c.161.022.3.043.4.063l.354.065v-3.86l-.322-.065Z" transform="translate(-176.931 -19.701)" fill="#fff"/>
    <path id="Path_5281" data-name="Path 5281" d="M278.265,25.91h-4.021l-2.9,4.664-2.895-4.664h-4.021l4.664,7.239L264.11,40.71h4.021l3.217-4.988,3.219,4.988h4.021L273.6,33.149Z" transform="translate(-206.712 -20.282)" fill="#fff"/>
  </g>
</svg>
